PathFileType	4	(X/Y/Z)	C:/Users/opensim2020/Desktop/walking_exp_matlab/subject03_walking17_run.trc																																																																																																																																																				
DataRate	CameraRate	NumFrames	NumMarkers	Units	OrigDataRate	OrigDataStartFrame	OrigNumFrames																																																																																																																																																
100	100	5	50	mm	100	303	132																																																																																																																																																
Frame#	Time	RTOE			LTHI			RWRB			LTIB			RELB			RUPA			RKNE			RTHI			RASI			RFRM			RWRA			RSHO			STRN			LFRM			CLAV			LWRB			LASI			RFHD			LFIN			LSHO			RTIB			LWRA			RBHD			LHEE			RANK			RHEE			C7			RFIN			LBHD			LUPA			LTOE			RBAK			LELB			LFHD			RPSI			LPSI			T10			LKNE			LANK			*39			*40			*41			*42			*43			*44			*45			*46			*47			*48			*49		
		X1	Y1	Z1	X2	Y2	Z2	X3	Y3	Z3	X4	Y4	Z4	X5	Y5	Z5	X6	Y6	Z6	X7	Y7	Z7	X8	Y8	Z8	X9	Y9	Z9	X10	Y10	Z10	X11	Y11	Z11	X12	Y12	Z12	X13	Y13	Z13	X14	Y14	Z14	X15	Y15	Z15	X16	Y16	Z16	X17	Y17	Z17	X18	Y18	Z18	X19	Y19	Z19	X20	Y20	Z20	X21	Y21	Z21	X22	Y22	Z22	X23	Y23	Z23	X24	Y24	Z24	X25	Y25	Z25	X26	Y26	Z26	X27	Y27	Z27	X28	Y28	Z28	X29	Y29	Z29	X30	Y30	Z30	X31	Y31	Z31	X32	Y32	Z32	X33	Y33	Z33	X34	Y34	Z34	X35	Y35	Z35	X36	Y36	Z36	X37	Y37	Z37	X38	Y38	Z38	X39	Y39	Z39	X40	Y40	Z40	X41	Y41	Z41	X42	Y42	Z42	X43	Y43	Z43	X44	Y44	Z44	X45	Y45	Z45	X46	Y46	Z46	X47	Y47	Z47	X48	Y48	Z48	X49	Y49	Z49	X50	Y50	Z50
																																																																																																																																																							
100	0.99	1431.26868	102.95543	395.73923	1385.11377	607.80267	135.93108	1421.9469	955.35138	491.72607	1242.74121	276.04901	208.71696	1276.63623	1119.55701	533.48297	1305.17725	1208.02942	508.54553	1639.03564	509.68243	410.89731	1523.89355	647.22235	439.47147	1484.80542	910.52869	392.80835	1358.5741	1027.86914	511.9183	1439.43042	995.23743	460.29123	1424.49158	1366.2439	410.36285	1544.87183	1150.4043	273.35461	1566.52917	1095.98193	81.1506	1503.8075	1319.24048	267.8876	1642.4491	1103.97668	159.23853	1479.31702	902.18317	156.8931	1467.84827	1614.78113	331.06525	1684.70337	1133.87073	225.17311	1461.28394	1356.06274	109.96196	1513.54797	370.9953	423.56281	1606.7489	1140.05176	182.43782	1367.7666	1533.11694	314.6788	1069.07922	109.54659	304.6503	1354.45874	220.88358	397.35388	1297.59509	219.90945	345.52081	1376.33936	1388.38025	243.08289	1493.07593	935.9787	479.02283	1386.01746	1531.33728	185.1561	1468.54834	1177.31335	15.29108	1242.40454	30.8649	303.88431	1310.77356	1231.48608	333.54092	1490.76624	1078.35535	3.60448	1491.78784	1613.93567	200.12183	1325.14526	952.94177	357.1525	1322.92603	950.42218	208.25148	1336.5636	1084.39124	268.42731	1369.125	432.7468	188.94495	1120.90271	116.43819	268.60202	NaN	NaN	NaN	NaN	NaN	NaN	1386.24768	1640.93225	236.40146	NaN	NaN	NaN	NaN	NaN	NaN	NaN	NaN	NaN	NaN	NaN	NaN	NaN	NaN	NaN	NaN	NaN	NaN	NaN	NaN	NaN	NaN	NaN	NaN
101	1	1510.67212	92.27123	391.69308	1410.67126	615.21191	135.02174	1442.97998	968.49249	492.79279	1254.4187	287.7861	207.28979	1297.41504	1133.27197	530.03705	1329.05823	1220.26001	505.57751	1676.19458	521.07056	408.34268	1561.52356	657.30505	437.29779	1519.91553	918.5213	391.87607	1379.19922	1041.61743	510.84772	1461.32117	1008.14001	461.47037	1453.53186	1374.26367	409.5607	1577.71423	1158.29846	275.02576	1605.21655	1112.51282	86.88637	1535.03918	1326.87817	269.28876	1677.52869	1126.54663	167.7049	1514.63574	907.70654	156.20245	1500.09741	1622.11719	330.97781	1716.02686	1161.88892	233.47972	1494.47632	1364.92041	111.77338	1564.21973	369.1123	421.60745	1639.92322	1162.43848	187.11511	1399.30115	1541.37244	314.87061	1081.04297	125.74024	304.00388	1422.40527	202.09563	394.50134	1365.92139	195.70518	342.66602	1407.7605	1395.12695	242.07782	1514.4906	949.27283	482.89316	1417.69824	1538.87476	185.38544	1508.89026	1186.16394	18.88045	1243.97937	30.82031	303.53555	1341.49146	1238.67114	330.0267	1533.33167	1088.17664	7.91456	1524.05945	1620.47034	200.21806	1359.91931	960.29822	355.52115	1358.15637	956.80029	207.22966	1370.25769	1090.2179	265.96643	1385.52759	440.65649	187.381	1131.13367	129.62524	268.01389	NaN	NaN	NaN	NaN	NaN	NaN	1419.03369	1648.63074	236.24422	NaN	NaN	NaN	NaN	NaN	NaN	NaN	NaN	NaN	NaN	NaN	NaN	NaN	NaN	NaN	NaN	NaN	NaN	NaN	NaN	NaN	NaN	NaN	NaN
102	1.01	1590.13599	82.6479	386.38113	1437.3158	622.8974	133.99638	1464.65674	981.01123	492.84381	1268.21741	300.12433	205.22052	1319.3595	1146.81519	526.4187	1353.77478	1232.61646	502.56186	1711.18835	530.28418	405.59491	1598.37646	667.04962	435.33585	1553.69458	926.77161	391.60303	1400.86792	1054.86694	509.10858	1484.09009	1020.53064	462.10007	1483.10913	1382.10071	408.73529	1610.45874	1166.24231	276.70923	1642.44763	1128.71802	92.09062	1566.28223	1334.56885	270.54022	1711.12219	1148.17053	174.94232	1550.37109	913.67261	155.72731	1532.23889	1629.34973	330.76373	1745.61926	1188.04102	240.65608	1527.30786	1374.0415	113.67445	1614.47021	366.36453	419.80817	1671.94421	1183.77173	190.7618	1430.90234	1549.54077	315.12177	1096.11987	142.209	302.79575	1491.83752	184.25879	391.5621	1436.0614	173.36275	339.82202	1439.46082	1402.11829	241.53745	1536.41345	961.85394	485.84702	1449.20325	1546.27893	185.66394	1548.44543	1195.6886	22.09751	1245.55554	30.60319	302.8439	1373.69116	1245.93994	326.9024	1574.74536	1098.72754	11.6086	1556.19202	1627.00842	200.19536	1394.82581	967.96301	353.86905	1393.9541	963.5625	206.46931	1404.12561	1096.26782	263.07074	1403.96912	449.97855	185.23412	1144.32642	142.67679	266.54303	NaN	NaN	NaN	NaN	NaN	NaN	1451.53857	1655.99109	236.34032	NaN	NaN	NaN	NaN	NaN	NaN	NaN	NaN	NaN	NaN	NaN	NaN	NaN	NaN	NaN	NaN	NaN	NaN	NaN	NaN	NaN	NaN	NaN	NaN
103	1.02	1669.20215	74.52013	380.34409	1464.60071	630.65039	133.03427	1487.38428	992.87042	492.53497	1284.01355	312.60516	203.06763	1342.36938	1159.87354	522.60681	1378.87097	1244.79541	498.75546	1744.66943	537.46198	402.55484	1634.35559	676.21014	433.39667	1589.2041	935.58063	389.90158	1423.48291	1067.28357	507.10599	1507.65173	1032.19421	462.25449	1513.31555	1389.43542	407.96216	1642.99597	1174.10706	277.89276	1678.23999	1144.18909	96.67026	1597.50208	1342.09619	271.60135	1743.47119	1168.33691	181.06224	1586.46948	919.80969	155.13194	1564.33057	1636.18835	330.56146	1773.9248	1212.05225	246.54128	1559.80249	1383.1073	115.58647	1663.85486	362.94208	417.27325	1702.75513	1203.05566	193.97159	1462.45789	1557.33569	315.33417	1114.68298	158.10657	300.9408	1561.9729	168.21071	388.41602	1507.47522	153.4106	336.85864	1471.29883	1409.10571	241.34941	1559.15857	973.81342	488.22781	1480.69226	1553.37854	185.94089	1587.43335	1205.66223	24.89449	1246.96057	30.08478	302.13974	1405.03894	1253.63452	323.91138	1614.92566	1109.54773	14.69299	1588.17493	1633.21338	200.11444	1430.60803	975.53278	352.52563	1429.26953	970.36432	205.40738	1438.15332	1102.4563	259.89429	1423.69958	459.18375	183.28027	1160.36829	154.28998	264.13507	NaN	NaN	NaN	NaN	NaN	NaN	1484.01477	1663.48572	235.82959	NaN	NaN	NaN	NaN	NaN	NaN	NaN	NaN	NaN	NaN	NaN	NaN	NaN	NaN	NaN	NaN	NaN	NaN	NaN	NaN	NaN	NaN	NaN	NaN
104	1.03	1746.5824	67.09743	372.89114	1492.54431	638.14716	132.20418	1511.00684	1003.7915	491.86594	1301.98486	324.64584	200.67181	1366.4126	1172.12012	518.86426	1405.29675	1256.25684	495.33099	1777.06299	542.36139	399.4194	1669.33337	684.28986	431.31226	1625.19531	944.29297	387.7955	1447.12122	1078.81421	504.89594	1532.18323	1042.9187	462.07199	1544.33569	1395.83264	407.27197	1675.56226	1181.5658	278.87912	1713.12415	1158.6897	100.28812	1628.69897	1349.07422	272.36023	1774.97351	1186.92188	185.84851	1622.88574	925.94598	154.53596	1596.52368	1642.2002	330.54205	1801.20789	1233.39209	251.45952	1591.87195	1391.53723	117.50714	1712.37683	358.94162	414.62109	1732.16711	1220.04321	197.15227	1494.28076	1564.42078	315.84763	1137.07764	173.14482	297.87256	1632.63123	154.20399	385.48224	1579.25818	136.67844	333.67987	1502.97217	1415.6239	241.6093	1582.72888	984.77478	489.94815	1512.0426	1559.79871	186.21686	1625.3783	1215.49072	27.40039	1248.6261	29.03426	301.14127	1436.36792	1261.13452	321.05667	1654.04102	1120.27588	16.97638	1620.03699	1638.72412	200.05127	1466.80151	982.84424	350.99176	1465.8064	976.758	204.67609	1471.21619	1108.64978	256.62469	1444.64136	468.39038	181.23615	1179.57361	163.65866	260.04407	NaN	NaN	NaN	NaN	NaN	NaN	1516.27356	1670.00269	235.65837	NaN	NaN	NaN	NaN	NaN	NaN	NaN	NaN	NaN	NaN	NaN	NaN	NaN	NaN	NaN	NaN	NaN	NaN	NaN	NaN	NaN	NaN	NaN	NaN
